<?xml version="1.0" encoding="iso-8859-1"?>
<!-- Generator: Adobe Illustrator 19.0.0, SVG Export Plug-In . SVG Version: 6.00 Build 0)  -->
<svg version="1.1" id="Capa_1" xmlns="http://www.w3.org/2000/svg" xmlns:xlink="http://www.w3.org/1999/xlink" x="0px" y="0px"
	 viewBox="0 0 496 496" style="enable-background:new 0 0 496 496;" xml:space="preserve">
<g>
	<g>
		<g>
			<path d="M0,0v40v56v400h496V96V40V0H0z M336,16h64v80c0,17.648-14.352,32-32,32s-32-14.352-32-32V16z M256,16h64v80
				c0,17.648-14.352,32-32,32s-32-14.352-32-32V16z M176,16h64v80c0,17.648-14.352,32-32,32s-32-14.352-32-32V16z M96,16h64v80
				c0,17.648-14.352,32-32,32s-32-14.352-32-32V16z M88,122.48c8.608,12.96,23.312,21.52,40,21.52s31.392-8.568,40-21.52
				c8.608,12.96,23.312,21.52,40,21.52s31.392-8.568,40-21.52c8.608,12.96,23.312,21.52,40,21.52s31.392-8.568,40-21.52
				c8.608,12.96,23.312,21.52,40,21.52s31.392-8.568,40-21.52c2.264,3.4,4.968,6.472,8,9.2V320h-16v-24
				c0-27.208-19.52-49.928-45.28-54.944C362.928,232.44,368,220.816,368,208c0-26.472-21.528-48-48-48s-48,21.528-48,48
				c0,12.816,5.072,24.44,13.28,33.056C259.52,246.072,240,268.792,240,296v24h-8v-56h-40v-48h-64v-56H80v-28.32
				C83.032,128.96,85.736,125.888,88,122.48z M344,288v32h-48v-32h-16v32h-24v-24c0-22.056,17.944-40,40-40h48
				c22.056,0,40,17.944,40,40v24h-24v-32H344z M288,208c0-17.648,14.352-32,32-32s32,14.352,32,32s-14.352,32-32,32
				S288,225.648,288,208z M216,280v40h-24v-40H216z M176,232v88h-48v-88H176z M112,176v144H80V176H112z M16,40V16h64v80
				c0,17.648-14.352,32-32,32s-32-14.352-32-32V40z M480,480H16V131.68C24.504,139.312,35.696,144,48,144
				c5.616,0,10.984-1.024,16-2.8V336h368V141.2c5.016,1.784,10.384,2.8,16,2.8c12.304,0,23.496-4.688,32-12.32V480z M480,40v56
				c0,17.648-14.352,32-32,32s-32-14.352-32-32V16h64V40z"/>
			<path d="M128,464h240V352H128V464z M144,368h208v80H144V368z"/>
			<rect x="160" y="384" width="176" height="16"/>
			<rect x="320" y="416" width="16" height="16"/>
			<rect x="160" y="416" width="144" height="16"/>
		</g>
	</g>
</g>
<g>
</g>
<g>
</g>
<g>
</g>
<g>
</g>
<g>
</g>
<g>
</g>
<g>
</g>
<g>
</g>
<g>
</g>
<g>
</g>
<g>
</g>
<g>
</g>
<g>
</g>
<g>
</g>
<g>
</g>
</svg>
