<svg height="438pt" viewBox="0 0 438 438.86173" width="438pt" xmlns="http://www.w3.org/2000/svg"><path d="m248.082031 37.367188c0 15.589843-12.636719 35.777343-28.222656 35.777343-15.589844 0-28.226563-20.1875-28.226563-35.777343 0-15.585938 12.636719-28.222657 28.226563-28.222657 15.585937 0 28.222656 12.636719 28.222656 28.222657zm0 0" fill="#ffd766"/><path d="m219.855469 82.285156c-21.042969 0-37.363281-24.148437-37.363281-44.917968 0-20.605469 16.761718-37.367188 37.363281-37.367188 20.605469 0 37.367187 16.761719 37.367187 37.367188 0 20.769531-16.320312 44.917968-37.367187 44.917968zm0-64c-10.519531 0-19.078125 8.558594-19.078125 19.082032 0 11.382812 9.433594 26.632812 19.078125 26.632812 9.648437 0 19.082031-15.25 19.082031-26.632812 0-10.523438-8.558594-19.082032-19.082031-19.082032zm0 0" fill="#2a3d4f"/><path d="m245.339844 100.574219c-7.214844 6.347656-15.804688 10.445312-25.480469 10.445312-9.679687 0-18.265625-4.097656-25.484375-10.445312-35.851562 10.359375-62.695312 45.304687-65.917969 83.652343-.351562 4.164063 2.882813 7.773438 7.054688 7.773438h168.691406c4.175781 0 7.40625-3.609375 7.058594-7.773438-3.222657-38.347656-30.066407-73.296874-65.921875-83.652343zm0 0" fill="#ec763e"/><path d="m304.203125 201.144531h-168.691406c-4.511719 0-8.851563-1.90625-11.910157-5.234375-3.085937-3.355468-4.636718-7.894531-4.257812-12.445312 3.589844-42.679688 33.398438-80.378906 72.492188-91.675782l4.816406-1.390624 3.757812 3.308593c12.339844 10.847657 26.566406 10.839844 38.890625.003907l3.761719-3.3125 4.816406 1.390624c39.097656 11.300782 68.90625 48.996094 72.492188 91.675782.382812 4.542968-1.164063 9.078125-4.25 12.4375-3.058594 3.328125-7.402344 5.242187-11.917969 5.242187zm-166.429687-18.289062h164.167968c-3.570312-32.777344-25.570312-61.582031-54.730468-72.070313-16.871094 12.300782-37.816407 12.3125-54.707032-.003906-29.160156 10.484375-51.160156 39.296875-54.730468 72.074219zm0 0" fill="#2a3d4f"/><path d="m129.226562 275.082031c0 15.585938-12.636718 35.777344-28.226562 35.777344-15.585938 0-28.222656-20.191406-28.222656-35.777344 0-15.585937 12.636718-28.222656 28.222656-28.222656 15.589844 0 28.226562 12.636719 28.226562 28.222656zm0 0" fill="#ffd766"/><path d="m101 320.003906c-21.042969 0-37.367188-24.144531-37.367188-44.917968 0-20.609376 16.765626-37.371094 37.367188-37.371094 20.605469 0 37.367188 16.761718 37.367188 37.371094 0 20.773437-16.320313 44.917968-37.367188 44.917968zm0-64.003906c-10.519531 0-19.082031 8.558594-19.082031 19.085938 0 11.382812 9.4375 26.632812 19.082031 26.632812 9.648438 0 19.082031-15.25 19.082031-26.632812 0-10.527344-8.558593-19.085938-19.082031-19.085938zm0 0" fill="#2a3d4f"/><path d="m126.484375 338.285156c-7.21875 6.347656-15.808594 10.449219-25.484375 10.449219s-18.265625-4.101563-25.484375-10.449219c-35.851563 10.359375-62.695313 45.308594-65.917969 83.65625-.347656 4.164063 2.882813 7.773438 7.058594 7.773438h168.691406c4.171875 0 7.40625-3.609375 7.054688-7.773438-3.21875-38.347656-30.066406-73.296875-65.917969-83.65625zm0 0" fill="#3c96d1"/><path d="m185.34375 438.863281h-168.6875c-4.507812 0-8.851562-1.914062-11.910156-5.234375-3.089844-3.355468-4.636719-7.894531-4.257813-12.445312 3.589844-42.6875 33.394531-80.382813 72.496094-91.679688l4.8125-1.382812 3.757813 3.304687c12.328124 10.835938 26.566406 10.828125 38.886718 0l3.765625-3.3125 4.8125 1.390625c39.101563 11.296875 68.910157 48.992188 72.496094 91.671875.382813 4.550781-1.167969 9.085938-4.253906 12.445313-3.054688 3.328125-7.402344 5.242187-11.917969 5.242187zm-166.429688-18.289062h164.171876c-3.574219-32.773438-25.570313-61.589844-54.734376-72.070313-16.859374 12.296875-37.824218 12.3125-54.703124 0-29.160157 10.480469-51.160157 39.296875-54.734376 72.070313zm0 0" fill="#2a3d4f"/><path d="m366.9375 275.082031c0 15.585938-12.632812 35.777344-28.222656 35.777344-15.585938 0-28.222656-20.191406-28.222656-35.777344 0-15.585937 12.636718-28.222656 28.222656-28.222656 15.589844 0 28.222656 12.636719 28.222656 28.222656zm0 0" fill="#ffd766"/><path d="m338.714844 320.003906c-21.042969 0-37.367188-24.144531-37.367188-44.917968 0-20.609376 16.765625-37.371094 37.367188-37.371094 20.601562 0 37.367187 16.761718 37.367187 37.371094 0 20.773437-16.324219 44.917968-37.367187 44.917968zm0-64.003906c-10.523438 0-19.082032 8.558594-19.082032 19.085938 0 11.382812 9.433594 26.632812 19.082032 26.632812 9.648437 0 19.082031-15.25 19.082031-26.632812 0-10.527344-8.558594-19.085938-19.082031-19.085938zm0 0" fill="#2a3d4f"/><path d="m364.199219 338.285156c-7.21875 6.347656-15.808594 10.449219-25.484375 10.449219-9.675782 0-18.265625-4.101563-25.484375-10.449219-35.851563 10.359375-62.695313 45.308594-65.917969 83.65625-.347656 4.164063 2.882812 7.773438 7.058594 7.773438h168.6875c4.175781 0 7.410156-3.609375 7.058594-7.773438-3.222657-38.347656-30.066407-73.296875-65.917969-83.65625zm0 0" fill="#eb675e"/><g fill="#2a3d4f"><path d="m423.058594 438.863281h-168.6875c-4.507813 0-8.851563-1.914062-11.910156-5.234375-3.089844-3.355468-4.640626-7.894531-4.257813-12.445312 3.585937-42.6875 33.394531-80.382813 72.492187-91.679688l4.8125-1.382812 3.761719 3.304687c12.328125 10.835938 26.5625 10.828125 38.886719 0l3.765625-3.3125 4.8125 1.390625c39.101563 11.296875 68.910156 48.992188 72.492187 91.671875.386719 4.550781-1.164062 9.085938-4.25 12.445313-3.054687 3.328125-7.40625 5.242187-11.917968 5.242187zm-166.429688-18.289062h164.171875c-3.574219-32.773438-25.574219-61.589844-54.734375-72.070313-16.863281 12.296875-37.828125 12.3125-54.703125 0-29.160156 10.480469-51.164062 39.296875-54.734375 72.070313zm0 0"/><path d="m265.570312 283.433594h-91.425781c-5.050781 0-9.144531-4.089844-9.144531-9.144532 0-5.054687 4.09375-9.140624 9.144531-9.140624h91.425781c5.050782 0 9.144532 4.085937 9.144532 9.140624 0 5.054688-4.09375 9.144532-9.144532 9.144532zm0 0"/><path d="m219.855469 283.433594c-5.046875 0-9.140625-4.089844-9.140625-9.144532v-36.574218c0-5.050782 4.09375-9.144532 9.140625-9.144532 5.050781 0 9.144531 4.09375 9.144531 9.144532v36.574218c0 5.054688-4.09375 9.144532-9.144531 9.144532zm0 0"/></g></svg>