<svg id="Layer_5" enable-background="new 0 0 64 64" height="512" viewBox="0 0 64 64" width="512" xmlns="http://www.w3.org/2000/svg"><g><g><g><path d="m55 60h-10l5-5z" fill="#b27946"/></g><g><path d="m44 60h-10l5-5z" fill="#b27946"/></g><g><path d="m33 60h-10l5-5z" fill="#b27946"/></g><g><path d="m24.111 45.611h7.778v7.778h-7.778z" fill="#b27946" transform="matrix(.707 -.707 .707 .707 -26.801 34.297)"/></g><g><path d="m35.111 45.611h7.778v7.778h-7.778z" fill="#b27946" transform="matrix(.707 -.707 .707 .707 -23.579 42.075)"/></g><g><path d="m46.111 45.611h7.778v7.778h-7.778z" fill="#b27946" transform="matrix(.707 -.707 .707 .707 -20.357 49.854)"/></g><g><path d="m59.6 34.4-.48 7.72-3.62-3.62z" fill="#b27946"/></g><g><path d="m46.111 34.611h7.778v7.778h-7.778z" fill="#b27946" transform="matrix(.707 -.707 .707 .707 -12.579 46.632)"/></g><g><path d="m35.111 34.611h7.778v7.778h-7.778z" fill="#b27946" transform="matrix(.707 -.707 .707 .707 -15.801 38.854)"/></g><g><path d="m24.111 34.611h7.778v7.778h-7.778z" fill="#b27946" transform="matrix(.707 -.707 .707 .707 -19.023 31.075)"/></g><g><path d="m33 28-5 5-5-5z" fill="#b27946"/></g><g><path d="m44 28-5 5-5-5z" fill="#b27946"/></g><g><path d="m55 28-5 5-5-5z" fill="#b27946"/></g><g><path d="m59.12 42.12-.65 10.35-2.97-2.97-5.5-5.5 5.5-5.5z" fill="#d3a06c"/></g><g><path d="m28 44-5.5 5.5-1.17 1.17-.78-.39c-.34-.17-.55-.52-.55-.9v-2.76c0-.38.21-.73.55-.9l1.45-.72v-7l.5.5z" fill="#d3a06c"/></g><g><path d="m58.47 52.47-.29 4.72c-.1 1.58-1.41 2.81-3 2.81h-.18l-5-5 5.5-5.5z" fill="#d3a06c"/></g><g><path d="m50 55-5 5h-1l-5-5 5.5-5.5z" fill="#d3a06c"/></g><g><path d="m39 55-5 5h-1l-5-5 5.5-5.5z" fill="#d3a06c"/></g><g><path d="m28 55-5 5h-.18c-.27 0-.54-.04-.79-.11h-.03v-8.89l-.67-.33 1.17-1.17z" fill="#d3a06c"/></g><g><path d="m29.611 40.111h7.778v7.778h-7.778z" fill="#d3a06c" transform="matrix(.707 -.707 .707 .707 -21.301 36.575)"/></g><g><path d="m40.611 40.111h7.778v7.778h-7.778z" fill="#d3a06c" transform="matrix(.707 -.707 .707 .707 -18.079 44.354)"/></g><g><path d="m60 28-.4 6.4-4.1 4.1-5.5-5.5 5-5z" fill="#d3a06c"/></g><g><path d="m50 33-5.5 5.5-5.5-5.5 5-5h1z" fill="#d3a06c"/></g><g><path d="m39 33-5.5 5.5-5.5-5.5 5-5h1z" fill="#d3a06c"/></g><g><path d="m28 33-5.5 5.5-.5-.5v-2c0-1.1-.9-2-2-2h-1.62l-.38-6h5z" fill="#d3a06c"/></g><g><path d="m62 24v2c0 1.1-.9 2-2 2h-5-10-1-10-1-10-5c-1.1 0-2-.9-2-2v-2c0-1.1.9-2 2-2h2 8 4 6 6 4 10 2c1.1 0 2 .9 2 2z" fill="#cf9e76"/></g><g><path d="m62 8v8c0 1.1-.9 2-2 2s-2-.9-2-2v-8c0-1.1.9-2 2-2 .55 0 1.05.22 1.41.59.37.36.59.86.59 1.41z" fill="#aab2bd"/></g><g><path d="m48 16h10v6h-10z" fill="#b4dd7f"/></g><g><path d="m58 8v8h-10v-9c0-2.76 2.24-5 5-5 1.38 0 2.63.56 3.54 1.46.9.91 1.46 2.16 1.46 3.54z" fill="#aab2bd"/></g><g><path d="m38 10h6v12h-6z" fill="#ff826e"/></g><g><path d="m39.42 2.68 4.58 7.32h-6-6l4.58-7.32c.26-.42.72-.68 1.22-.68h.4c.5 0 .96.26 1.22.68z" fill="#aab2bd"/></g><g><path d="m32 10h6v12h-6z" fill="#fcd770"/></g><g><path d="m20 10h8v12h-8z" fill="#e6e9ed"/></g><g><path d="m25.35 2.94 2.65 7.06h-8l2.65-7.06c.21-.57.75-.94 1.35-.94s1.14.37 1.35.94z" fill="#ccd1d9"/></g><g><path d="m20 34h-1.62-14.38c-1.1 0-2 .9-2 2v9l1.45.72c.34.17.55.52.55.9v2.76c0 .38-.21.73-.55.9l-1.45.72v9c0 1.1.9 2 2 2h16c1.1 0 2-.9 2-2v-.11-8.89l-.67-.33-.78-.39c-.34-.17-.55-.52-.55-.9v-2.76c0-.38.21-.73.55-.9l1.45-.72v-7-2c0-1.1-.9-2-2-2z" fill="#fcd770"/></g><g><circle cx="14" cy="50" fill="#969faa" r="2"/></g><g><path d="m14 52v10h-6v-24h6v10c-1.1 0-2 .9-2 2s.9 2 2 2z" fill="#e6e9ed"/></g></g><path d="m60 19c1.654 0 3-1.346 3-3v-8c0-1.654-1.346-3-3-3-.449 0-.871.106-1.253.283-.741-2.474-3.035-4.283-5.747-4.283-3.309 0-6 2.691-6 6v14h-2v-11.287l-4.728-7.565c-.449-.719-1.224-1.148-2.072-1.148h-.4c-.848 0-1.623.429-2.072 1.147l-4.728 7.566v11.287h-2v-11.182l-2.712-7.232c-.355-.948-1.275-1.586-2.288-1.586s-1.933.638-2.288 1.585l-2.712 7.233v11.182h-1c-1.654 0-3 1.346-3 3v2c0 1.32.863 2.431 2.05 2.831l.261 4.169h-13.311c-1.654 0-3 1.346-3 3v9.618l2 1v2.764l-2 1v9.618c0 1.654 1.346 3 3 3h16c1.302 0 2.402-.839 2.816-2h.003 32.363c2.107 0 3.861-1.647 3.992-3.75l1.776-28.419c1.187-.4 2.05-1.511 2.05-2.831v-2c0-1.654-1.346-3-3-3h-1v-2.184c.314.112.648.184 1 .184zm0-12c.551 0 1 .448 1 1v8c0 .552-.449 1-1 1s-1-.448-1-1v-8c0-.552.449-1 1-1zm-7-4c2.206 0 4 1.794 4 4v1 7h-8v-8c0-2.206 1.794-4 4-4zm-14 18v-10h4v10zm-1.576-17.792c.081-.13.222-.208.376-.208h.4c.154 0 .294.078.375.208l3.621 5.792h-8.391zm-4.424 7.792h4v10h-4zm-9.415-7.713c.129-.344.7-.345.829.001l2.143 5.712h-5.114zm-2.585 7.713h6v10h-6zm-1.936 18h3.521l4 4-3.585 3.586v-.586c0-1.654-1.346-3-3-3h-.686zm1.936 20.382v-2.764l2-1v-5.204l3.586 3.586-5.45 5.45zm12.586-20.382 4 4-4.086 4.086-4.086-4.086 4-4zm11 0 4 4-4.086 4.086-4.086-4.086 4-4zm-20.672 20.5 4.086-4.086 4.086 4.086-4.086 4.086zm2.672 5.5-3.586 3.586v-7.172zm2.828-11 4.086-4.086 4.086 4.086-4.086 4.086zm9.586 1.414 4.086 4.086-4.086 4.086-4.086-4.086zm1.414-1.414 4.086-4.086 4.086 4.086-4.086 4.086zm5.5-5.5 4.086-4.086 4.086 4.086-4.086 4.086zm-2.828 0-4.086 4.086-4.086-4.086 4.086-4.086zm-11 0-4.086 4.086-4.086-4.086 4.086-4.086zm-4.086 17.914 2.586 2.586h-5.172zm5.414 2.586-4-4 4.086-4.086 4.086 4.086-4 4zm5.586-2.586 2.586 2.586h-5.172zm5.586 2.586h-.172l-4-4 4.086-4.086 4.086 4.086zm5.414-2.586 2.586 2.586h-5.172zm-4.086-6.914 4.086-4.086 4.086 4.086-4.086 4.086zm5.5-5.5 4.086-4.086 2.591 2.591-.481 7.692zm5.5-5.5 1.522-1.522-.179 2.866zm1.711-4.539-3.125 3.125-4.086-4.086 4-4h3.521zm-8.625-2.375-2.586-2.586h5.172zm-11 0-2.586-2.586h5.172zm-11 0-2.586-2.586h5.172zm-14 19.414c-.551 0-1-.448-1-1s.449-1 1-1 1 .448 1 1-.449 1-1 1zm-1-3.816c-1.161.414-2 1.514-2 2.816s.839 2.402 2 2.816v8.184h-4v-22h4zm8 12.816c0 .552-.449 1-1 1h-5v-8.184c1.161-.414 2-1.514 2-2.816s-.839-2.402-2-2.816v-10.184h-8v24h-3c-.551 0-1-.448-1-1v-8.382l.894-.447c.682-.34 1.106-1.025 1.106-1.789v-2.764c0-.764-.424-1.449-1.105-1.789l-.895-.447v-8.382c0-.552.449-1 1-1h16c.551 0 1 .448 1 1v8.382l-.894.447c-.682.34-1.106 1.025-1.106 1.789v2.764c0 .764.424 1.449 1.105 1.789l.895.447zm34.393-1.021-3.979-3.979 4.086-4.086 1.944 1.944-.267 4.267c-.06.98-.828 1.752-1.784 1.854zm5.607-34.979v2c0 .552-.449 1-1 1h-42c-.551 0-1-.448-1-1v-2c0-.552.449-1 1-1h42c.551 0 1 .448 1 1zm-12-3v-4h8v4z"/></g></svg>