<?xml version="1.0"?>
<svg xmlns="http://www.w3.org/2000/svg" viewBox="0 0 512 512" width="512" height="512"><g id="outline"><path d="M192,120a72,72,0,1,0-72,72A72.081,72.081,0,0,0,192,120ZM64,120a56,56,0,1,1,56,56A56.063,56.063,0,0,1,64,120Z"/><path d="M143.992,144a8,8,0,0,0,4.446-14.657L128,115.719V96a8,8,0,0,0-16,0v24a8,8,0,0,0,3.562,6.656l24,16A7.961,7.961,0,0,0,143.992,144Z"/><path d="M488,128h-9.754l-6.485-25.94A8,8,0,0,0,464,96H221.2A104,104,0,1,0,72,212.239V488a8,8,0,0,0,8,8H488a8,8,0,0,0,8-8V456a8,8,0,0,0-8-8h-8V271.138A55.8,55.8,0,0,0,496,232V136A8,8,0,0,0,488,128Zm-8,96H400V144h80ZM464,400H448V320a8,8,0,0,0-8-8H264a8,8,0,0,0-8,8v80H240V320a8,8,0,0,0-8-8H152a8,8,0,0,0-8,8v80H128V282.586a55.946,55.946,0,0,0,72-21.776,55.964,55.964,0,0,0,96,0,55.964,55.964,0,0,0,96,0,55.946,55.946,0,0,0,72,21.776ZM272,328H432v88H272ZM128,448V416h16v32Zm-8-224a103.641,103.641,0,0,0,72-29.026V224H112V223.7Q115.962,224,120,224Zm264-80v80H304V144Zm-.8,96a40.005,40.005,0,0,1-78.392,0ZM288,224H208V175.363A103.435,103.435,0,0,0,221.2,144H288Zm-.8,16a40.005,40.005,0,0,1-78.392,0ZM120,240h71.2a40.005,40.005,0,0,1-78.392,0Zm40,88h64V448H160Zm280-56a40.071,40.071,0,0,1-39.2-32H479.2A40.071,40.071,0,0,1,440,272Zm17.754-160,4,16H223.7q.3-3.962.305-8t-.305-8ZM32,120a88,88,0,1,1,88,88A88.1,88.1,0,0,1,32,120ZM96,221.2V232a55.8,55.8,0,0,0,16,39.138V416H88V218.956Q91.935,220.231,96,221.2ZM104,456v24H88V432h24v16A8,8,0,0,0,104,456Zm376,24H120V464H480ZM240,448V416h16v8a8,8,0,0,0,8,8H440a8,8,0,0,0,8-8v-8h16v32Z"/><path d="M400,344H376a8,8,0,0,0-7.845,6.431L361.441,384H334.246l-4-16H344a8,8,0,0,0,0-16H320a8,8,0,0,0-7.761,9.94l8,32A8,8,0,0,0,328,400a8,8,0,0,0,16,0h8a8,8,0,0,0,16,0,8,8,0,0,0,7.845-6.431L382.559,360H400a8,8,0,0,0,0-16Z"/><path d="M192,368H176a8,8,0,0,0-8,8v8a8,8,0,0,0,16,0h8a8,8,0,0,0,0-16Z"/></g></svg>
