<svg id="icon" height="512" viewBox="0 0 128 128" width="512" xmlns="http://www.w3.org/2000/svg"><path d="m61.156 31.32h5.688v53.64h-5.688z" fill="#8ae0a1"/><path d="m67.844 85.96h-7.688v-55.64h7.688zm-5.687-2h3.688v-51.64h-3.689z" fill="#2f3a5a"/><path d="m39.137 84.96h49.727v9.048h-49.727z" fill="#ff9852"/><path d="m80.617 126.998h-33.235l-4.353-32.99h41.942z" fill="#ff9852"/><path d="m79.967 84.961h8.9v9.051h-8.9z" fill="#ec8f4a"/><path d="m84.968 94.012-4.352 32.988h-8.9l4.361-32.988z" fill="#ec8f4a"/><path d="m88.863 95.008h-49.726a1 1 0 0 1 -1-1v-9.048a1 1 0 0 1 1-1h49.726a1 1 0 0 1 1 1v9.048a1 1 0 0 1 -1 1zm-48.727-2h47.727v-7.048h-47.726z" fill="#2f3a5a"/><path d="m80.618 128h-33.236a1 1 0 0 1 -.991-.869l-4.353-32.992a1 1 0 0 1 .991-1.131h41.942a1 1 0 0 1 .991 1.131l-4.353 32.991a1 1 0 0 1 -.991.87zm-32.358-2h31.481l4.089-30.992h-39.66z" fill="#2f3a5a"/><path d="m92.193 53.542c-12.433-1.18-21.555 7.942-20.374 20.375 12.433 1.183 21.555-7.941 20.374-20.375z" fill="#8ae0a1"/><path d="m73.982 75.021q-1.114 0-2.258-.108a1 1 0 0 1 -.9-.9 19.629 19.629 0 0 1 5.37-16.094c4.063-4.064 9.775-5.971 16.095-5.371a1 1 0 0 1 .9.9 19.632 19.632 0 0 1 -5.371 16.094 19.2 19.2 0 0 1 -13.836 5.479zm-1.232-2.036a16.883 16.883 0 0 0 18.512-18.511 16.883 16.883 0 0 0 -18.512 18.511z" fill="#2f3a5a"/><path d="m82.374 62.141-15.53 16.707" fill="#8ae0a1"/><path d="m66.844 79.848a1 1 0 0 1 -.732-1.681l15.53-16.707a1 1 0 0 1 1.465 1.361l-15.531 16.707a1 1 0 0 1 -.732.32z" fill="#2f3a5a"/><path d="m35.807 53.542c12.433-1.181 21.555 7.941 20.375 20.375-12.434 1.183-21.556-7.941-20.375-20.375z" fill="#8ae0a1"/><path d="m54.018 75.021a19.2 19.2 0 0 1 -13.836-5.479 19.632 19.632 0 0 1 -5.371-16.094 1 1 0 0 1 .9-.9 19.636 19.636 0 0 1 16.095 5.371 19.629 19.629 0 0 1 5.37 16.094 1 1 0 0 1 -.9.9q-1.143.108-2.258.108zm-17.28-20.547a16.883 16.883 0 0 0 18.512 18.511 17.49 17.49 0 0 0 -4.857-13.653 17.487 17.487 0 0 0 -13.655-4.858z" fill="#2f3a5a"/><path d="m45.626 62.141 15.53 16.707" fill="#8ae0a1"/><path d="m61.156 79.848a1 1 0 0 1 -.732-.319l-15.53-16.707a1 1 0 0 1 1.465-1.361l15.53 16.707a1 1 0 0 1 -.732 1.681z" fill="#2f3a5a"/><circle cx="64" cy="26.111" fill="#ffc943" r="25.111"/><path d="m64 52.222a26.111 26.111 0 1 1 26.111-26.111 26.141 26.141 0 0 1 -26.111 26.111zm0-50.222a24.111 24.111 0 1 0 24.111 24.111 24.138 24.138 0 0 0 -24.111-24.111z" fill="#2f3a5a"/><path d="m71.907 27.642a7.828 7.828 0 0 0 -3.1-2.055 39.684 39.684 0 0 0 -4.891-1.339 14.284 14.284 0 0 1 -4.205-1.4 2.413 2.413 0 0 1 -1.126-2.174 2.957 2.957 0 0 1 1.4-2.552 6.939 6.939 0 0 1 3.953-.961q5.276 0 5.733 4.19h2.977a6.414 6.414 0 0 0 -2.536-5.119 9.119 9.119 0 0 0 -4.373-1.684v-4.372h-3.539v4.346a8.43 8.43 0 0 0 -4.348 1.693 5.632 5.632 0 0 0 -2.244 4.6 5.013 5.013 0 0 0 1.722 3.985 12.892 12.892 0 0 0 5.686 2.339 23.33 23.33 0 0 1 5.584 1.708 2.92 2.92 0 0 1 1.622 2.772 3.288 3.288 0 0 1 -1.567 2.867 7.281 7.281 0 0 1 -4.134 1.055 8.336 8.336 0 0 1 -4.621-1.241 4.785 4.785 0 0 1 -2.15-3.819h-2.95a7.646 7.646 0 0 0 2.544 5.623 8.878 8.878 0 0 0 4.856 2.03v3.912h3.541v-3.823a8.9 8.9 0 0 0 5.09-1.895 6.165 6.165 0 0 0 2.37-4.946 5.286 5.286 0 0 0 -1.294-3.74z" fill="#e0a020"/></svg>