<svg id="icon" enable-background="new 0 0 512 512" height="512" viewBox="0 0 512 512" width="512" xmlns="http://www.w3.org/2000/svg"><g><path d="m138.5 44h357.5v337.7h-357.5z" fill="#e1b378"/><path d="m495.9 44v16.6h-345v321h-12.4v-337.6z" fill="#ffc78a"/><path d="m495.9 385.6h-357.4c-2.2 0-4-1.8-4-4v-337.6c0-2.2 1.8-4 4-4h357.5c2.2 0 4 1.8 4 4v337.7c-.1 2.1-1.9 3.9-4.1 3.9zm-353.4-8h349.5v-329.6h-349.5z" fill="#2f3a5a"/><path d="m503.5 381.2c-5.3-6.1-13.8-8.1-21.3-5l-149.7 41-98.2-30.4 115.8 11.6c10.7 1.2 21.3-3 28.1-11.3 13.4-16.9-4.4-31.3-10.6-32.3-7.7-1.3-60.3 0-144.9-31.8s-137.2 37-137.2 37v94.9l205.9 12.8c26.5 1.6 53-2.2 77.9-11.2l128.5-46.5c9.2-4.6 12.8-15.8 8.2-25-.7-1.4-1.5-2.6-2.5-3.8z" fill="#e8c79c"/><path d="m303.6 472c-4.1 0-8.3-.1-12.4-.4l-209.7-13v-100l.8-1.1c.5-.7 55.4-70.8 141.8-38.3 71.6 26.9 119.4 29.9 137.4 31.1 3.2.2 5.4.3 6.7.6 7.9 2.4 14.3 8.3 17.4 16 3 7.8 1.3 16.5-4.3 22.7-7.7 9.4-19.6 14.3-31.7 12.8l-76.3-7.6 59.1 18.3 148.3-40.7c9-3.7 19.3-1.2 25.6 6.2 8.2 9.4 7.1 23.7-2.3 31.8-1.4 1.2-2.9 2.2-4.6 3.1l-.4.2-128.5 46.5c-21.3 7.9-44 11.9-66.9 11.8zm-214.1-20.9 202.2 12.6c25.9 1.6 51.9-2.1 76.3-11l128.2-46.4c7.1-3.8 9.8-12.6 6-19.7-3.5-6.6-11.5-9.5-18.4-6.6l-.5.2-150.8 41.3-137.3-42.5 155.4 15.5c9.3 1.1 18.6-2.6 24.6-9.8 3.7-4 4.9-9.7 3.1-14.9-2.1-5.1-6.1-9.1-11.3-11-.9-.2-3.1-.3-5.9-.5-18.3-1.2-67.1-4.2-139.8-31.6-75.4-28.3-125 26.4-131.8 34.6z" fill="#2f3a5a"/><path d="m497.8 409.9-128.5 46.5c-24.9 9-51.4 12.8-77.9 11.2l-205.9-12.7v-12.1l201.8 12.5c26.5 1.6 53-2.2 77.9-11.2l128.5-46.5c6.1-3 10-9.1 10.1-15.9 6.5 7.9 5.4 19.6-2.5 26.1-1.1.8-2.3 1.5-3.5 2.1z" fill="#d0aa79"/><path d="m303.6 470c-4.1 0-8.2-.1-12.3-.4l-205.9-12.8c-1.1-.1-1.9-.9-1.9-2v-94.8c0-.4.1-.9.4-1.2.5-.7 54.5-69.6 139.5-37.6 71.8 27 119.9 30 138 31.2 3.2.2 5.3.3 6.5.5 7.2 2.3 13.1 7.7 15.9 14.8 2.7 7.1 1.1 15.1-4 20.8-7.3 8.8-18.5 13.4-29.9 12.1l-96-9.6 78.7 24.3 149.1-40.9c8.2-3.4 17.6-1.1 23.3 5.6 7.4 8.6 6.5 21.6-2.1 29-1.3 1.1-2.7 2-4.2 2.8l-128.7 46.6c-21.3 7.7-43.8 11.7-66.4 11.6zm-216.1-17 204 12.7c26.2 1.7 52.4-2.1 77.1-11.1l128.5-46.5c8.1-4.3 11.2-14.3 7-22.4-.6-1.1-1.3-2.2-2.1-3.1-4.7-5.4-12.4-7.2-19-4.4l-149.9 41.1c-.4.1-.8.1-1.1 0l-98.2-30.4c-1.1-.3-1.6-1.4-1.3-2.5.3-.9 1.2-1.5 2.1-1.4l115.8 11.6c10 1.1 19.9-2.8 26.4-10.6 4.2-4.5 5.5-11 3.4-16.8-2.3-5.7-7-10.2-12.8-12.3-1-.2-3.2-.3-6.1-.5-18.3-1.2-66.8-4.2-139.2-31.4-78.4-29.5-129.5 29.6-134.5 35.8z" fill="#2f3a5a"/><path d="m4 321.3h98.2v146.7h-98.2z" fill="#9297ab"/><path d="m4 435.3h98.2v32.8h-98.2z" fill="#84879c"/><path d="m273.8 44h89.2v105.5h-89.2z" fill="#f0f5f9"/><g fill="#2f3a5a"><path d="m362.9 153.4h-89.2c-2.2 0-4-1.8-4-4v-105.4c0-2.2 1.8-4 4-4h89.2c2.2 0 4 1.8 4 4v105.5c0 2.1-1.8 3.9-4 3.9zm-85.1-8h81.2v-97.4h-81.2z"/><path d="m384.5 330.6c-2.2 0-4-1.8-4-4v-94.4c0-2.2 1.8-4 4-4s4 1.8 4 4v94.4c0 2.2-1.8 4-4 4z"/><path d="m403.3 260.1c-1.3 0-2.5-.6-3.3-1.7l-15.6-22-15.6 22c-1.3 1.8-3.8 2.2-5.6.9s-2.2-3.8-.9-5.6l18.9-26.6c.7-1.1 2-1.7 3.3-1.7 1.3 0 2.5.6 3.3 1.7l18.9 26.6c1.3 1.8.9 4.3-1 5.6-.8.5-1.6.8-2.4.8z"/><path d="m443.3 330.6c-2.2 0-4-1.8-4-4v-94.4c0-2.2 1.8-4 4-4s4 1.8 4 4v94.4c0 2.2-1.8 4-4 4z"/><path d="m462.2 260.1c-1.3 0-2.5-.6-3.3-1.7l-15.6-22-15.6 22c-1.3 1.8-3.8 2.2-5.6.9s-2.2-3.8-.9-5.6l18.9-26.6c.7-1.1 2-1.7 3.3-1.7 1.3 0 2.5.6 3.3 1.7l18.9 26.6c1.3 1.8.9 4.3-1 5.6-.8.5-1.6.8-2.4.8z"/><path d="m102.2 472h-98.2c-2.2 0-4-1.8-4-4v-146.7c0-2.2 1.8-4 4-4h98.2c2.2 0 4 1.8 4 4v146.7c0 2.3-1.7 4-4 4zm-94.2-8h90.2v-138.7h-90.2z"/></g></g></svg>