<svg id="icon" height="512" viewBox="0 0 128 128" width="512" xmlns="http://www.w3.org/2000/svg"><path d="m45.348 127-5.353-18.053-17.093 7.9 28.394-62.775 22.446 10.153z" fill="#ef5361"/><g opacity=".5"><path d="m73.736 64.225-28.391 62.773-2.871-9.7 25.233-55.799z" fill="#da2a47"/></g><path d="m45.349 128h-.068a1 1 0 0 1 -.891-.713l-5.026-16.947-16.042 7.415a1 1 0 0 1 -1.331-1.32l28.394-62.775a1 1 0 0 1 1.323-.5l22.446 10.154a1 1 0 0 1 .5 1.323l-28.394 62.775a1 1 0 0 1 -.911.588zm-5.354-20.053a1 1 0 0 1 .959.716l4.591 15.479 26.874-59.418-20.624-9.324-26.875 59.413 14.654-6.773a1 1 0 0 1 .42-.093z" fill="#2f3a5a"/><path d="m80.392 127 5.354-18.053 17.093 7.9-28.394-62.775-22.446 10.153z" fill="#ef5361"/><g opacity=".5"><path d="m52.005 64.225 28.391 62.773 2.87-9.7-25.232-55.799z" fill="#da2a47"/></g><path d="m80.393 128a1 1 0 0 1 -.911-.588l-28.394-62.775a1 1 0 0 1 .5-1.323l22.445-10.153a1 1 0 0 1 1.323.5l28.394 62.775a1 1 0 0 1 -1.331 1.32l-16.043-7.416-5.024 16.944a1 1 0 0 1 -.891.713zm-27.071-63.276 26.878 59.418 4.59-15.479a1 1 0 0 1 1.379-.624l14.655 6.773-26.878-59.412z" fill="#2f3a5a"/><g fill="#ef5361"><path d="m104.082 38.489a6.26 6.26 0 0 1 -1.357-6.822 6.26 6.26 0 0 0 -3.388-8.179 6.26 6.26 0 0 1 -3.865-5.788 6.26 6.26 0 0 0 -6.26-6.26 6.26 6.26 0 0 1 -5.783-3.864 6.26 6.26 0 0 0 -8.179-3.388 6.259 6.259 0 0 1 -6.822-1.357 6.26 6.26 0 0 0 -8.853 0 6.26 6.26 0 0 1 -6.822 1.357 6.26 6.26 0 0 0 -8.179 3.388 6.26 6.26 0 0 1 -5.783 3.864 6.26 6.26 0 0 0 -6.26 6.26 6.26 6.26 0 0 1 -3.864 5.783 6.26 6.26 0 0 0 -3.388 8.179 6.259 6.259 0 0 1 -1.357 6.822 6.26 6.26 0 0 0 0 8.853 6.26 6.26 0 0 1 1.357 6.822 6.26 6.26 0 0 0 3.388 8.179 6.26 6.26 0 0 1 3.864 5.784 6.26 6.26 0 0 0 6.26 6.26 6.26 6.26 0 0 1 5.784 3.864 6.26 6.26 0 0 0 8.179 3.388 6.26 6.26 0 0 1 6.819 1.366 6.26 6.26 0 0 0 8.853 0 6.26 6.26 0 0 1 6.822-1.357 6.26 6.26 0 0 0 8.179-3.388 6.26 6.26 0 0 1 5.784-3.864 6.26 6.26 0 0 0 6.26-6.26 6.26 6.26 0 0 1 3.864-5.783 6.26 6.26 0 0 0 3.388-8.179 6.26 6.26 0 0 1 1.357-6.822 6.26 6.26 0 0 0 .002-8.858z"/><path d="m28.19 61.977a1.594 1.594 0 0 1 .13.22 6.182 6.182 0 0 1 -2.592-2.361 6.307 6.307 0 0 1 2.462 2.141z"/><path d="m40.857 74.744a5.973 5.973 0 0 0 -2.071-.36 6.23 6.23 0 0 1 -4.422-1.831 6.023 6.023 0 0 1 -.93-1.2 5.93 5.93 0 0 0 2.071.36 6.275 6.275 0 0 1 5.353 3.032z"/><path d="m80.139 4.9a7.113 7.113 0 0 0 -.41-.83 6.223 6.223 0 0 1 3.7 3.5 6.643 6.643 0 0 0 .43.84 5.865 5.865 0 0 1 -1.421-.7 6.25 6.25 0 0 1 -2.299-2.81z"/><path d="m92.186 15.03a6.216 6.216 0 0 0 -.9-3.222 6.077 6.077 0 0 1 2.351 1.471 6.231 6.231 0 0 1 1.831 4.421 6.141 6.141 0 0 0 .93 3.272 3.728 3.728 0 0 0 -.35-.16 6.186 6.186 0 0 1 -2.811-2.3 6.307 6.307 0 0 1 -1.051-3.482z"/></g><g opacity=".5"><path d="m104.083 47.339a6.236 6.236 0 0 0 -1.361 6.824 6.257 6.257 0 0 1 -3.382 8.185 6.263 6.263 0 0 0 -3.872 5.783 6.252 6.252 0 0 1 -6.254 6.254 6.157 6.157 0 0 0 -3.472 1.061 6.271 6.271 0 0 0 -2.311 2.812 6.257 6.257 0 0 1 -8.185 3.382 6.236 6.236 0 0 0 -6.823 1.36 6.257 6.257 0 0 1 -8.845 0 6.236 6.236 0 0 0 -6.824-1.361 6.289 6.289 0 0 1 -7.775-2.552 6.2 6.2 0 0 0 4.483-.12 6.236 6.236 0 0 1 6.824 1.361 6.269 6.269 0 0 0 8.855 0 6.236 6.236 0 0 1 6.824-1.361 6.16 6.16 0 0 0 2.4.48 6.248 6.248 0 0 0 5.773-3.862 6.262 6.262 0 0 1 5.783-3.872 6.252 6.252 0 0 0 6.264-6.254 6.233 6.233 0 0 1 3.862-5.783 6.252 6.252 0 0 0 3.392-8.185 6.308 6.308 0 0 1 -.48-2.4 6.233 6.233 0 0 1 1.831-4.423 6.232 6.232 0 0 0 0-8.845 6.256 6.256 0 0 1 -1.349-6.823 6.216 6.216 0 0 0 -.46-5.683c.12.06.24.12.36.17a6.251 6.251 0 0 1 3.862 5.783 6.389 6.389 0 0 1 -.48 2.4 6.263 6.263 0 0 0 1.361 6.824 6.256 6.256 0 0 1 0 8.845z" fill="#da2a47"/></g><path d="m98.98 23.315a6.207 6.207 0 0 1 -2.451-2.141c-.04-.07-.09-.13-.13-.2a6.238 6.238 0 0 1 2.581 2.341z" fill="#ef5361"/><path d="m64 85.827a7.236 7.236 0 0 1 -5.134-2.127 5.247 5.247 0 0 0 -5.732-1.141 7.258 7.258 0 0 1 -9.485-3.929 5.246 5.246 0 0 0 -4.86-3.247 7.268 7.268 0 0 1 -7.261-7.26 5.244 5.244 0 0 0 -3.247-4.86 7.26 7.26 0 0 1 -3.929-9.486 5.245 5.245 0 0 0 -1.141-5.733 7.269 7.269 0 0 1 0-10.267 5.244 5.244 0 0 0 1.141-5.732 7.26 7.26 0 0 1 3.929-9.486 5.244 5.244 0 0 0 3.247-4.86 7.268 7.268 0 0 1 7.261-7.26 5.245 5.245 0 0 0 4.858-3.239 7.269 7.269 0 0 1 9.486-3.93 5.247 5.247 0 0 0 5.732-1.14 7.268 7.268 0 0 1 10.268 0 5.246 5.246 0 0 0 5.732 1.141 7.258 7.258 0 0 1 9.487 3.929 5.247 5.247 0 0 0 4.86 3.247 7.268 7.268 0 0 1 7.261 7.26 5.245 5.245 0 0 0 3.246 4.86 7.26 7.26 0 0 1 3.93 9.486 5.248 5.248 0 0 0 1.14 5.733l-.707.707.708-.707a7.269 7.269 0 0 1 0 10.267 5.244 5.244 0 0 0 -1.141 5.732 7.26 7.26 0 0 1 -3.929 9.486 5.244 5.244 0 0 0 -3.247 4.86 7.269 7.269 0 0 1 -7.261 7.261 5.246 5.246 0 0 0 -4.86 3.247 7.259 7.259 0 0 1 -9.485 3.929 5.245 5.245 0 0 0 -5.732 1.14 7.238 7.238 0 0 1 -5.135 2.119zm-8.846-5.667a7.24 7.24 0 0 1 5.126 2.13 5.268 5.268 0 0 0 7.439 0 7.236 7.236 0 0 1 7.912-1.574 5.259 5.259 0 0 0 6.869-2.846 7.241 7.241 0 0 1 6.708-4.482 5.267 5.267 0 0 0 5.261-5.26 7.237 7.237 0 0 1 4.481-6.708 5.26 5.26 0 0 0 2.847-6.873 7.24 7.24 0 0 1 1.573-7.913 5.266 5.266 0 0 0 0-7.439 7.238 7.238 0 0 1 -1.574-7.912 5.26 5.26 0 0 0 -2.847-6.873 7.238 7.238 0 0 1 -4.476-6.71 5.267 5.267 0 0 0 -5.261-5.26 7.239 7.239 0 0 1 -6.712-4.478 5.267 5.267 0 0 0 -6.873-2.848 7.236 7.236 0 0 1 -7.907-1.573 5.267 5.267 0 0 0 -7.439 0 7.24 7.24 0 0 1 -7.912 1.574 5.259 5.259 0 0 0 -6.869 2.846 7.241 7.241 0 0 1 -6.708 4.482 5.266 5.266 0 0 0 -5.261 5.26 7.237 7.237 0 0 1 -4.481 6.708 5.26 5.26 0 0 0 -2.85 6.872 7.238 7.238 0 0 1 -1.575 7.917 5.266 5.266 0 0 0 0 7.439 7.238 7.238 0 0 1 1.575 7.908 5.26 5.26 0 0 0 2.847 6.873 7.238 7.238 0 0 1 4.481 6.708 5.267 5.267 0 0 0 5.261 5.261 7.241 7.241 0 0 1 6.711 4.48 5.259 5.259 0 0 0 6.872 2.847 7.269 7.269 0 0 1 2.782-.556z" fill="#2f3a5a"/><circle cx="64" cy="42.915" fill="#da2a47" r="27.717"/><path d="m64 71.632a28.717 28.717 0 1 1 28.717-28.716 28.749 28.749 0 0 1 -28.717 28.716zm0-55.432a26.717 26.717 0 1 0 26.717 26.716 26.747 26.747 0 0 0 -26.717-26.716z" fill="#2f3a5a"/><path d="m81.06 38.202-11.788-1.713-5.272-10.682-5.272 10.682-11.788 1.713 8.53 8.315-2.014 11.741 10.544-5.544 10.544 5.544-2.014-11.741z" fill="#d9e2e9"/><path d="m74.544 59.258a1 1 0 0 1 -.466-.115l-10.078-5.299-10.078 5.3a1 1 0 0 1 -1.451-1.054l1.929-11.224-8.154-7.948a1 1 0 0 1 .555-1.706l11.269-1.637 5.03-10.21a1.041 1.041 0 0 1 1.793 0l5.039 10.21 11.268 1.637a1 1 0 0 1 .555 1.706l-8.155 7.948 1.925 11.223a1 1 0 0 1 -.985 1.169zm-10.544-7.544a1 1 0 0 1 .466.115l8.75 4.6-1.671-9.744a1 1 0 0 1 .287-.885l7.079-6.9-9.783-1.421a1 1 0 0 1 -.753-.547l-4.375-8.865-4.375 8.865a1 1 0 0 1 -.753.547l-9.783 1.421 7.079 6.9a1 1 0 0 1 .287.885l-1.671 9.745 8.75-4.6a1 1 0 0 1 .466-.116z" fill="#2f3a5a"/></svg>